<?xml version="1.0" encoding="UTF-8" standalone="no"?>
<svg
   version="1.1"
   x="0px"
   y="0px"
   viewBox="0 0 100 81.24499999999999"
   enable-background="new 0 0 100 64.996"
   xml:space="preserve"
   id="svg14"
   sodipodi:docname="noun-hide-8013.svg"
   inkscape:version="1.2.1 (9c6d41e, 2022-07-14)"
   xmlns:inkscape="http://www.inkscape.org/namespaces/inkscape"
   xmlns:sodipodi="http://sodipodi.sourceforge.net/DTD/sodipodi-0.dtd"
   xmlns="http://www.w3.org/2000/svg"
   xmlns:svg="http://www.w3.org/2000/svg"><defs
     id="defs18" /><sodipodi:namedview
     id="namedview16"
     pagecolor="#ffffff"
     bordercolor="#000000"
     borderopacity="0.25"
     inkscape:showpageshadow="2"
     inkscape:pageopacity="0.0"
     inkscape:pagecheckerboard="0"
     inkscape:deskcolor="#d1d1d1"
     showgrid="false"
     inkscape:zoom="2.904794"
     inkscape:cx="49.917481"
     inkscape:cy="40.622501"
     inkscape:window-width="1309"
     inkscape:window-height="456"
     inkscape:window-x="0"
     inkscape:window-y="32"
     inkscape:window-maximized="0"
     inkscape:current-layer="svg14" /><path
     fill="#010101"
     d="M39.214,39.423l-7.958-2.378l3.02,5.251c0.578,0.89,0.869,2.013,0.914,2.892v1.1  c0.285,2.413-1.934,5.113-3.774,6.677v12.032h9.96V45.461L39.214,39.423z"
     id="path2" /><polygon
     fill="#010101"
     points="31.415,0 31.415,13.497 41.375,16.458 41.375,9.953 90.051,9.953 90.051,64.996 100,64.996 100,0   "
     id="polygon4" /><path
     fill="#010101"
     d="M61.827,34.278c4.307-1.074,6.929-5.433,5.854-9.723c-1.058-4.3-5.42-6.917-9.731-5.856  c-4.301,1.09-6.919,5.433-5.845,9.724C53.167,32.721,57.527,35.354,61.827,34.278z"
     id="path6" /><path
     fill="#010101"
     d="M20.87,12.856c-5.536-2.011-11.642,0.834-13.644,6.372c-1.133,3.053-0.78,6.438,0.733,8.907l9.887,16.444  L2.699,53.92c-1.84,1.354-2.956,3.676-2.647,6.101c0.44,3.593,3.608,5.228,7.188,4.779c0.824-0.108,1.298-0.452,1.99-0.836  l20.609-13.01c1.498-0.999,2.882-3.086,2.709-4.556c-0.126-1.063-0.021-2.025-0.384-2.586l-6.452-11.328l15.504,4.638l4.533,11.301  c0.66,1.994,1.952,3.247,3.734,3.723l20.204,5.906c2.223,0.584,4.467-0.755,5.045-2.95c0.588-2.206-0.753-4.477-2.946-5.061  L55.81,45.38l-6.793-20.443c-0.871-2.432-2.791-4.332-5.096-5.222L20.87,12.856z"
     id="path8" /></svg>
