<?xml version="1.0" encoding="UTF-8" standalone="no"?>
<svg
   version="1.1"
   x="0px"
   y="0px"
   viewBox="0 0 100 81.24499999999999"
   enable-background="new 0 0 100 64.996"
   xml:space="preserve"
   id="svg14"
   sodipodi:docname="noun-hide-8013.svg"
   inkscape:version="1.2.1 (9c6d41e, 2022-07-14)"
   xmlns:inkscape="http://www.inkscape.org/namespaces/inkscape"
   xmlns:sodipodi="http://sodipodi.sourceforge.net/DTD/sodipodi-0.dtd"
   xmlns="http://www.w3.org/2000/svg"
   xmlns:svg="http://www.w3.org/2000/svg"><defs
     id="defs18" /><sodipodi:namedview
     id="namedview16"
     pagecolor="#ffffff"
     bordercolor="#000000"
     borderopacity="0.25"
     inkscape:showpageshadow="2"
     inkscape:pageopacity="0.0"
     inkscape:pagecheckerboard="0"
     inkscape:deskcolor="#d1d1d1"
     showgrid="false"
     inkscape:zoom="5.9994538"
     inkscape:cx="54.088257"
     inkscape:cy="51.921393"
     inkscape:window-width="1728"
     inkscape:window-height="1057"
     inkscape:window-x="0"
     inkscape:window-y="32"
     inkscape:window-maximized="0"
     inkscape:current-layer="svg14" /><path
     fill="#010101"
     d="M39.214,39.423l-7.958-2.378l3.02,5.251c0.578,0.89,0.869,2.013,0.914,2.892v1.1  c0.285,2.413-1.934,5.113-3.774,6.677v12.032h9.96V45.461L39.214,39.423z"
     id="path2" /><polygon
     fill="#010101"
     points="31.415,0 31.415,13.497 41.375,16.458 41.375,9.953 90.051,9.953 90.051,64.996 100,64.996 100,0   "
     id="polygon4" /><path
     fill="#010101"
     d="M61.827,34.278c4.307-1.074,6.929-5.433,5.854-9.723c-1.058-4.3-5.42-6.917-9.731-5.856  c-4.301,1.09-6.919,5.433-5.845,9.724C53.167,32.721,57.527,35.354,61.827,34.278z"
     id="path6" /><path
     fill="#010101"
     d="M20.87,12.856c-5.536-2.011-11.642,0.834-13.644,6.372c-1.133,3.053-0.78,6.438,0.733,8.907l9.887,16.444  L2.699,53.92c-1.84,1.354-2.956,3.676-2.647,6.101c0.44,3.593,3.608,5.228,7.188,4.779c0.824-0.108,1.298-0.452,1.99-0.836  l20.609-13.01c1.498-0.999,2.882-3.086,2.709-4.556c-0.126-1.063-0.021-2.025-0.384-2.586l-6.452-11.328l15.504,4.638l4.533,11.301  c0.66,1.994,1.952,3.247,3.734,3.723l20.204,5.906c2.223,0.584,4.467-0.755,5.045-2.95c0.588-2.206-0.753-4.477-2.946-5.061  L55.81,45.38l-6.793-20.443c-0.871-2.432-2.791-4.332-5.096-5.222L20.87,12.856z"
     id="path8" /><path
     style="fill:#b3b3b3;stroke:#000000;stroke-width:0.0686677"
     d="M 4.1552697,64.527979 C 2.5751002,64.10192 1.4026139,63.161808 0.61791937,61.691694 0.30775241,61.110601 0.25155483,60.737606 0.2508523,59.255394 0.25011967,57.709683 0.30157334,57.39528 0.69131611,56.563982 1.4956528,54.848383 2.2063932,54.314332 10.305001,49.340256 c 5.611125,-3.44629 7.53642,-4.70816 7.483497,-4.904806 C 17.749309,44.28983 15.39638,40.307836 12.559767,35.586573 8.9992794,29.660492 7.3099908,26.692784 7.1042112,26.002367 6.6624148,24.520083 6.572755,22.0945 6.9070506,20.668548 c 0.3798647,-1.62033 1.4101163,-3.655991 2.4213564,-4.784327 1.150575,-1.283806 2.95943,-2.460679 4.676871,-3.042856 1.227059,-0.415948 1.653833,-0.477911 3.246292,-0.471327 l 1.833501,0.0076 12.334456,3.680056 c 6.996538,2.087458 12.768819,3.898832 13.338149,4.185587 0.552032,0.278041 1.395484,0.879218 1.874337,1.335947 1.695631,1.617289 1.819159,1.910467 5.610459,13.315697 l 3.512603,10.566839 7.917388,2.308267 c 4.354563,1.269547 8.230249,2.426884 8.612634,2.571861 0.986324,0.37395 1.977581,1.511911 2.308465,2.650114 0.68258,2.347992 -0.98306,4.789736 -3.438893,5.041246 -0.812501,0.08321 -1.91688,-0.205589 -11.565911,-3.024539 -5.955262,-1.739822 -10.977515,-3.29547 -11.36912,-3.521597 -1.361261,-0.78604 -1.641713,-1.302852 -4.382314,-8.075642 l -2.583569,-6.38472 -7.731575,-2.308798 c -4.252367,-1.269839 -7.766681,-2.273695 -7.809584,-2.230791 -0.0429,0.0429 1.407729,2.680079 3.22363,5.860386 3.185973,5.579817 3.306362,5.823969 3.436604,6.969541 0.16122,1.418051 0.06494,2.081675 -0.449017,3.094796 -0.794276,1.565705 -1.468052,2.05135 -12.483737,8.998005 -5.855298,3.69244 -10.9557619,6.854191 -11.334365,7.026113 -0.8101954,0.367907 -2.7588324,0.413284 -3.9504413,0.09199 z"
     id="path443" /><path
     style="fill:#b3b3b3;stroke:#000000;stroke-width:0.0686677"
     d="m 31.502868,58.982222 v -5.940353 l 1.22938,-1.286778 c 0.852246,-0.892036 1.427488,-1.687722 1.875171,-2.593774 0.636868,-1.288939 0.645576,-1.332442 0.630295,-3.148813 -0.01886,-2.242364 -0.06068,-2.359523 -2.114725,-5.925522 -0.871293,-1.512637 -1.568162,-2.768096 -1.548597,-2.789908 0.01956,-0.02181 1.730167,0.460791 3.80134,1.072451 l 3.765769,1.112108 1.098632,3.094596 1.098633,3.094595 -8.35e-4,9.625876 -8.35e-4,9.625876 h -4.917114 -4.917114 z"
     id="path445" /><path
     style="fill:#b3b3b3;stroke:#000000;stroke-width:0.0686677"
     d="m 58.150364,34.24315 c -3.540977,-0.837936 -6.149636,-4.114495 -6.143652,-7.716624 0.0046,-2.750461 1.245857,-5.07742 3.517782,-6.594554 2.932276,-1.958098 6.660248,-1.760563 9.475829,0.5021 0.840363,0.675334 2.020643,2.424234 2.408014,3.568113 1.456662,4.301429 -1.165482,8.991813 -5.684935,10.168981 -1.032673,0.268977 -2.606582,0.300686 -3.573038,0.07198 z"
     id="path447" /><path
     style="fill:#b3b3b3;stroke:#000000;stroke-width:0.0686677"
     d="M 90.174875,37.420073 V 9.9175694 H 65.755986 41.337096 v 3.1669546 c 0,2.051374 -0.06017,3.166955 -0.170824,3.166955 -0.160394,0 -4.401449,-1.240681 -8.038256,-2.351517 L 31.502868,13.403573 V 6.7434567 0.08334092 H 65.672645 99.842422 V 32.502959 64.922576 h -4.833773 -4.833774 z"
     id="path449" /></svg>
