<?xml version="1.0" encoding="UTF-8" standalone="no"?>
<svg
   viewBox="0 0 512 512"
   version="1.1"
   id="svg7410"
   sodipodi:docname="shield-virus-gray.svg"
   inkscape:version="1.2.1 (9c6d41e, 2022-07-14)"
   xmlns:inkscape="http://www.inkscape.org/namespaces/inkscape"
   xmlns:sodipodi="http://sodipodi.sourceforge.net/DTD/sodipodi-0.dtd"
   xmlns="http://www.w3.org/2000/svg"
   xmlns:svg="http://www.w3.org/2000/svg">
  <defs
     id="defs7414" />
  <sodipodi:namedview
     id="namedview7412"
     pagecolor="#ffffff"
     bordercolor="#000000"
     borderopacity="0.25"
     inkscape:showpageshadow="2"
     inkscape:pageopacity="0.0"
     inkscape:pagecheckerboard="0"
     inkscape:deskcolor="#d1d1d1"
     showgrid="false"
     inkscape:zoom="0.4609375"
     inkscape:cx="256"
     inkscape:cy="256"
     inkscape:window-width="1309"
     inkscape:window-height="456"
     inkscape:window-x="0"
     inkscape:window-y="32"
     inkscape:window-maximized="0"
     inkscape:current-layer="svg7410" />
  <!--! Font Awesome Free 6.2.0 by @fontawesome - https://fontawesome.com License - https://fontawesome.com/license/free (Icons: CC BY 4.0, Fonts: SIL OFL 1.1, Code: MIT License) Copyright 2022 Fonticons, Inc. -->
  <path
     d="M269.4 2.9C265.2 1 260.7 0 256 0s-9.2 1-13.4 2.9L54.3 82.8c-22 9.3-38.4 31-38.3 57.2c.5 99.2 41.3 280.7 213.6 363.2c16.7 8 36.1 8 52.8 0C454.7 420.7 495.5 239.2 496 140c.1-26.2-16.3-47.9-38.3-57.2L269.4 2.9zM256 112c8.8 0 16 7.2 16 16c0 33 39.9 49.5 63.2 26.2c6.2-6.2 16.4-6.2 22.6 0s6.2 16.4 0 22.6C334.5 200.1 351 240 384 240c8.8 0 16 7.2 16 16s-7.2 16-16 16c-33 0-49.5 39.9-26.2 63.2c6.2 6.2 6.2 16.4 0 22.6s-16.4 6.2-22.6 0C311.9 334.5 272 351 272 384c0 8.8-7.2 16-16 16s-16-7.2-16-16c0-33-39.9-49.5-63.2-26.2c-6.2 6.2-16.4 6.2-22.6 0s-6.2-16.4 0-22.6C177.5 311.9 161 272 128 272c-8.8 0-16-7.2-16-16s7.2-16 16-16c33 0 49.5-39.9 26.2-63.2c-6.2-6.2-6.2-16.4 0-22.6s16.4-6.2 22.6 0C200.1 177.5 240 161 240 128c0-8.8 7.2-16 16-16zM232 256c13.3 0 24-10.7 24-24s-10.7-24-24-24s-24 10.7-24 24s10.7 24 24 24zm72 32c0-8.8-7.2-16-16-16s-16 7.2-16 16s7.2 16 16 16s16-7.2 16-16z"
     id="path7408"
     style="fill:#ababab;fill-opacity:1" />
</svg>
